<svg width="54" height="53" viewBox="0 0 54 53" fill="none" xmlns="http://www.w3.org/2000/svg">
<path d="M26.0795 1.16843C26.4243 0.356099 27.5757 0.356099 27.9205 1.16843L33.1999 13.6052C33.3961 14.0675 33.9049 14.3125 34.3888 14.1777L47.4038 10.5511C48.254 10.3142 48.9718 11.2144 48.5517 11.9905L42.1199 23.8722C41.8808 24.3139 42.0064 24.8645 42.4135 25.1587L53.3637 33.0732C54.0789 33.5901 53.8227 34.7126 52.954 34.868L39.6543 37.2476C39.1599 37.336 38.8078 37.7776 38.8316 38.2793L39.4711 51.775C39.5129 52.6565 38.4756 53.1561 37.8124 52.5738L27.6598 43.6593C27.2824 43.3279 26.7176 43.3279 26.3402 43.6593L16.1876 52.5738C15.5244 53.1561 14.4871 52.6565 14.5289 51.775L15.1684 38.2793C15.1922 37.7776 14.8401 37.336 14.3457 37.2476L1.04599 34.868C0.177286 34.7126 -0.0789078 33.5901 0.636326 33.0732L11.5865 25.1587C11.9936 24.8645 12.1192 24.3139 11.8801 23.8722L5.44832 11.9905C5.02821 11.2144 5.74605 10.3142 6.59616 10.5511L19.6112 14.1777C20.0951 14.3125 20.6039 14.0675 20.8001 13.6052L26.0795 1.16843Z" fill="url(#paint0_linear_50_557)"/>
<defs>
<linearGradient id="paint0_linear_50_557" x1="27" y1="-1" x2="27" y2="57" gradientUnits="userSpaceOnUse">
<stop stop-color="#FFBBBB"/>
<stop offset="1" stop-color="#FF8A8A"/>
</linearGradient>
</defs>
</svg>
